<?xml version="1.0" encoding="UTF-8" standalone="no"?>
<svg
   id="dolphinrefreshblue"
   viewBox="0 0 255.99999 142.81932"
   version="1.1"
   sodipodi:docname="logo-dolphin.svg"
   width="256"
   height="142.81931"
   inkscape:version="1.2.2 (b0a8486541, 2022-12-01)"
   inkscape:export-filename="dolphin-logo.png"
   inkscape:export-xdpi="112.8"
   inkscape:export-ydpi="112.8"
   xmlns:inkscape="http://www.inkscape.org/namespaces/inkscape"
   xmlns:sodipodi="http://sodipodi.sourceforge.net/DTD/sodipodi-0.dtd"
   xmlns="http://www.w3.org/2000/svg"
   xmlns:svg="http://www.w3.org/2000/svg">
  <sodipodi:namedview
     id="namedview37"
     pagecolor="#505050"
     bordercolor="#ffffff"
     borderopacity="1"
     inkscape:showpageshadow="0"
     inkscape:pageopacity="0"
     inkscape:pagecheckerboard="1"
     inkscape:deskcolor="#505050"
     showgrid="false"
     inkscape:zoom="2"
     inkscape:cx="98.25"
     inkscape:cy="126"
     inkscape:window-width="1452"
     inkscape:window-height="481"
     inkscape:window-x="37"
     inkscape:window-y="69"
     inkscape:window-maximized="0"
     inkscape:current-layer="dolphinrefreshblue" />
  <defs
     id="defs32">
    <linearGradient
       id="linear-gradient"
       x1="921.62"
       y1="672.33002"
       x2="225.62"
       y2="-23.68"
       gradientUnits="userSpaceOnUse">
      <stop
         offset="0"
         stop-color="#3217ff"
         id="stop2" />
      <stop
         offset=".26"
         stop-color="#2b38ff"
         id="stop4" />
      <stop
         offset=".5"
         stop-color="#2455ff"
         id="stop6" />
      <stop
         offset=".75"
         stop-color="#1d74ff"
         id="stop8" />
      <stop
         offset="1"
         stop-color="#1792ff"
         id="stop10" />
    </linearGradient>
    <linearGradient
       id="linear-gradient-2"
       x1="551.69"
       y1="654.33002"
       x2="438.44"
       y2="12.11"
       gradientUnits="userSpaceOnUse">
      <stop
         offset="0"
         stop-color="#0e80ff"
         id="stop13" />
      <stop
         offset=".13"
         stop-color="#0789ff"
         id="stop15" />
      <stop
         offset=".25"
         stop-color="#0090ff"
         id="stop17" />
      <stop
         offset=".38"
         stop-color="#009dff"
         id="stop19" />
      <stop
         offset=".5"
         stop-color="#0af"
         id="stop21" />
      <stop
         offset=".62"
         stop-color="#00b7ff"
         id="stop23" />
      <stop
         offset=".75"
         stop-color="#00c4ff"
         id="stop25" />
      <stop
         offset=".87"
         stop-color="#21ccff"
         id="stop27" />
      <stop
         offset="1"
         stop-color="#46d4ff"
         id="stop29" />
    </linearGradient>
  </defs>
  <g
     id="g345"
     transform="matrix(0.24999299,0,0,0.24999299,0.00330505,6.9539439e-4)">
    <path
       id="accent"
       d="M 1022.56,571.21 C 1021.29,571.39 984.04,401.22 888.06,306.64 809.8,229.53 632.77,78.88 402.78,95.28 222.81,108.11 247.52,194.5 257.44,190.37 285.62,178.61 417.89,141.05 558.95,219.93 683.67,289.67 731.45,406.55 723.99,415.65 722.4,417.57 678.84,306.85 479.48,264.69 324.96,232.01 162.87,258.75 93.85,286.15 65.78,297.3 19.97,327.72 11.1,297.28 2.79,268.75 44.6,245.74 49.53,226.83 55.97,202.11 51.52,79.73 229.36,27.3 c 69.13,-20.38 206.69,-40 356.78,6.08 7.41,1.62 16.34,0.93 22.08,-2.63 12.86,-7.98 38.97,-24.94 91.15,-29.56 100.28,-8.88 129,34.46 124.16,42.86 -2.44,4.24 -80.13,-20.48 -96.57,28.08 -6.12,18.08 6.78,28.28 15.94,34.57 32.67,21.29 63.4,45.41 91.84,72.09 66.54,62.22 112.8,128.96 150.42,219.66 29.94,72.19 43.57,171.86 37.4,172.75 z"
       style="fill:url(#linear-gradient);fill-rule:evenodd;stroke-width:0px" />
    <path
       id="main"
       d="m 1022.65,571.29 c -2.15,0.3 -73.59,-154.8 -169.57,-249.37 -78.26,-77.11 -220.89,-203.51 -451.29,-194.61 -102.85,3.97 -151.08,51.44 -144.13,63.02 6.78,11.3 140.6,-31.02 283.56,44.38 130.09,68.62 185.48,179.26 182.78,181.3 -2.21,1.67 -101.12,-86.71 -250.52,-125.78 -0.58,-0.09 -1.15,-0.21 -1.73,-0.34 -26.77,-6.58 -29.04,29.26 -1.48,63.55 31.9,39.7 46.88,43.17 45.33,48.28 -1.97,6.43 -63.11,8.78 -122.18,-32.52 -52.04,-36.39 -75.4,-85.8 -82.28,-92.13 -5.82,-5.35 -12.47,-4.05 -20.2,-3.94 -0.32,0 -0.63,0 -0.95,0 -83.04,3.15 -132.41,12.35 -196.14,37.65 -28.07,11.15 -66.77,13.55 -88.81,-9.24 -22.87,-23.65 39.02,-56.97 43.95,-75.87 6.44,-24.72 2.53,-121.3 180.36,-173.74 69.24,-20.42 207.11,-40.06 357.46,6.29 7.58,1.86 14.42,2.09 21.4,-2.84 18.56,-13.12 49.71,-30.75 101.87,-35.43 87.65,-7.85 115.71,19.11 113.43,24.09 -2.03,4.45 -80.13,4.15 -96.57,52.72 -6.12,18.08 6.78,28.28 15.94,34.57 32.67,21.29 63.4,45.41 91.85,72.09 66.55,62.22 112.81,128.96 150.42,219.66 29.93,72.19 39.98,147.84 37.48,148.2 z"
       style="fill:url(#linear-gradient-2);fill-rule:evenodd;stroke-width:0px" />
  </g>
</svg>
